<svg width="212" height="53" viewBox="0 0 212 53" fill="none" xmlns="http://www.w3.org/2000/svg">
<path d="M119.78 8.7877C118.645 8.7733 117.52 8.98828 116.473 9.41955C115.425 9.85082 114.476 10.4894 113.685 11.2963V9.0656H97.0487C93.6532 8.32573 90.1839 7.97294 86.7079 8.01409C72.469 8.01409 61.5913 12.9449 61.5913 19.4831C61.5913 21.8865 63.2057 23.738 66.964 25.5255L64.9412 26.393L62.1206 27.5535C60.7161 28.0808 59.3886 28.7918 58.1733 29.6677V17.35C58.1733 11.6794 54.6382 8.7877 47.7682 8.7877C43.6924 8.7877 41.3407 9.53878 38.9625 12.1375L42.8493 15.8929C44.1196 14.4471 45.1934 13.8875 47.5376 13.8875C50.7703 13.8875 52.0747 15.048 52.0747 17.6993V18.9123H46.3201C40.6488 18.9123 37.9756 22.0706 37.9756 25.9349C37.9176 27.9412 38.6423 29.8922 39.9984 31.3802C41.4503 32.8223 43.4655 33.517 46.2294 33.517C48.9932 33.517 50.5888 32.8223 52.2297 31.1924V33.288H58.1695V33.1265C59.4248 33.8776 61.6593 34.6286 65.0773 35.4285L61.319 36.3599C55.5418 37.7794 53.3791 38.4554 50.9782 39.5031C47.617 40.9227 45.8702 42.7103 45.8702 44.7382C45.8702 49.6803 56.6118 53.0001 72.7336 53.0001C91.1316 53.0001 104.694 48.3133 104.694 42.0831C104.694 39.9238 102.803 38.016 99.1925 36.7166C96.0997 35.59 93.143 34.9929 82.4052 33.5734C73.9397 32.4467 71.3876 31.9698 69.2363 31.0648C68.2986 30.5615 67.6256 29.8931 67.6256 29.2171C67.6256 28.2144 68.5671 27.6135 71.1154 26.6259C74.6052 27.2785 78.1511 27.5892 81.702 27.5535C94.9957 27.5535 105.337 22.6151 105.337 16.3924C105.337 14.5372 104.803 13.4932 102.788 11.8859C102.788 11.8859 105.314 11.8859 107.703 12.1187V33.2992H113.806V18.6531C113.806 15.3484 115.965 14.2368 117.882 14.2368C119.799 14.2368 121.923 15.3634 121.923 18.6531V33.2992H128.014V17.8157C128.014 15.1644 127.508 12.8811 125.53 10.9283C124.184 9.58009 122.215 8.7877 119.78 8.7877ZM52.1012 24.3726C52.1012 25.8748 51.863 26.8399 51.2051 27.4483C50.1313 28.451 49.05 28.6125 47.3637 28.6125C44.9779 28.6125 43.855 27.4859 43.855 25.8185C43.855 24.1511 45.0687 23.0808 47.2578 23.0808H52.086L52.1012 24.3726ZM71.157 36.9532H71.6939C73.2932 36.9532 76.231 37.2612 80.7681 37.9559C84.9044 38.508 87.1956 38.9586 89.1806 39.552C92.6704 40.5584 94.5231 42.0042 94.5231 43.7205C94.5231 47.5923 85.706 50.5328 74.3254 50.5328C63.1074 50.5328 55.6363 48.0805 55.6363 44.4039C55.6363 42.2559 57.7801 40.5284 62.2038 38.9999C65.2285 37.9371 69.1115 37.0847 71.1154 36.9532H71.157ZM81.7133 25.3603C75.5655 25.3603 72.1173 23.216 72.1173 19.408C72.1173 14.2556 77.059 10.5753 84.4129 10.5753H84.9195C90.7989 10.5753 94.5382 12.9675 94.5382 16.7078C94.5382 21.7363 89.0407 25.3453 81.6831 25.3453L81.7133 25.3603Z" fill="#1E1F1C"/>
<path d="M142.37 8.7876C138.763 8.7876 136.321 10.1884 134.809 11.7694C132.608 14.0489 132.049 16.7829 132.049 21.1579C132.049 25.5329 132.608 28.3194 134.809 30.6027C136.321 32.1838 138.748 33.577 142.37 33.577C145.993 33.577 148.462 32.1838 149.932 30.6027C152.137 28.3194 152.696 25.5855 152.696 21.1579C152.696 16.7303 152.137 14.0226 149.932 11.7694C148.462 10.1884 145.974 8.7876 142.37 8.7876ZM145.229 27.0389C144.852 27.403 144.404 27.6862 143.912 27.871C143.42 28.0558 142.896 28.1381 142.37 28.1129C141.852 28.1389 141.334 28.0568 140.849 27.8718C140.365 27.6868 139.925 27.4031 139.557 27.0389C138.295 25.7883 138.151 23.659 138.151 21.1354C138.151 18.6117 138.295 16.5275 139.557 15.2732C139.926 14.9112 140.367 14.6291 140.851 14.4449C141.335 14.2607 141.853 14.1783 142.37 14.2029C142.895 14.1788 143.419 14.2612 143.911 14.4453C144.402 14.6293 144.851 14.911 145.229 15.2732C146.495 16.5275 146.632 18.623 146.632 21.1354C146.632 23.6477 146.495 25.8183 145.229 27.0389Z" fill="#1E1F1C"/>
<path d="M163.449 26.01V0.180298H157.358V26.378C157.358 29.8217 159.468 33.3105 164.478 33.3105H167.949V28.1956H165.604C164.054 28.1956 163.449 27.4483 163.449 26.01Z" fill="#1E1F1C"/>
<path d="M177.975 9.073H171.884V33.3141H177.975V9.073Z" fill="#1E1F1C"/>
<path d="M178.017 0H171.786V4.93084H178.017V0Z" fill="#1E1F1C"/>
<path d="M191.885 8.7876C187.81 8.7876 185.458 9.53868 183.076 12.1374L186.966 15.8928C188.229 14.447 189.311 13.8874 191.651 13.8874C194.88 13.8874 196.188 15.0479 196.188 17.6992V18.9122H190.434C184.762 18.9122 182.089 22.0705 182.089 25.9348C182.03 27.9406 182.753 29.8917 184.108 31.3801C185.56 32.8222 187.579 33.5169 190.335 33.5169C193.092 33.5169 194.695 32.8222 196.336 31.1923V33.2878H202.279V17.3499C202.279 11.6793 198.725 8.7876 191.885 8.7876ZM196.196 24.3725C196.196 25.8747 195.958 26.8398 195.307 27.4482C194.23 28.4509 193.156 28.6124 191.462 28.6124C189.072 28.6124 187.927 27.4857 187.927 25.8183C187.927 24.1509 189.144 23.0807 191.352 23.0807H196.173L196.196 24.3725Z" fill="#1E1F1C"/>
<path d="M25.8161 8.78763C24.4447 8.7333 23.0782 8.98049 21.8142 9.51152C20.5501 10.0426 19.4197 10.8443 18.5038 11.8595C16.9574 9.76403 14.7456 8.78763 12.0384 8.78763C10.9067 8.78565 9.78577 9.00631 8.74033 9.43688C7.69489 9.86744 6.74565 10.4994 5.94739 11.2962V9.06553H0V33.3067H6.09106V18.6606C6.09106 15.3558 8.24619 14.2442 10.1669 14.2442C12.0876 14.2442 14.2049 15.3708 14.2049 18.6606V33.3067H20.2922V18.5254C20.2922 15.3596 22.4927 14.2442 24.3605 14.2442C26.2282 14.2442 28.4023 15.3708 28.4023 18.6643V33.3104H34.4933V17.8156C34.4933 15.1643 33.7901 12.881 31.8467 10.9282C30.4477 9.58002 28.2472 8.78763 25.8161 8.78763Z" fill="#1E1F1C"/>
<path d="M209.278 7.0527C209.283 6.86084 209.251 6.66977 209.182 6.49042C209.113 6.31107 209.009 6.14696 208.877 6.00745C208.744 5.86795 208.585 5.75579 208.408 5.67739C208.232 5.59899 208.042 5.55589 207.849 5.55054H205.58V10.2636H206.816V8.49102H207.323L208.038 10.2523H209.448L208.559 8.28071C208.787 8.16773 208.976 7.99133 209.103 7.77319C209.231 7.55504 209.291 7.30463 209.278 7.0527ZM207.531 7.55592H206.816V6.6058H207.542C207.605 6.59939 207.669 6.60533 207.729 6.62328C207.79 6.64123 207.846 6.67084 207.895 6.71042C207.944 6.75 207.985 6.79878 208.015 6.85396C208.045 6.90915 208.063 6.96966 208.07 7.03204C208.076 7.09443 208.07 7.15747 208.052 7.21756C208.034 7.27765 208.004 7.33361 207.965 7.38226C207.925 7.43091 207.876 7.47128 207.82 7.50108C207.764 7.53087 207.703 7.54951 207.641 7.55592H207.531Z" fill="#1E1F1C"/>
<path d="M207.334 3.2522C206.409 3.25072 205.505 3.52187 204.735 4.03134C203.966 4.5408 203.365 5.26565 203.011 6.11412C202.656 6.96258 202.563 7.89648 202.743 8.79758C202.923 9.69868 203.368 10.5264 204.022 11.176C204.676 11.8256 205.51 12.2679 206.417 12.4467C207.324 12.6256 208.264 12.533 209.119 12.1808C209.973 11.8285 210.703 11.2324 211.216 10.468C211.729 9.7035 212.002 8.80505 212 7.88637C211.998 6.65792 211.506 5.48036 210.631 4.61171C209.757 3.74307 208.571 3.25419 207.334 3.2522ZM207.334 11.3864C206.635 11.4055 205.946 11.2182 205.355 10.8483C204.763 10.4784 204.295 9.94253 204.01 9.30839C203.724 8.67425 203.635 7.97036 203.753 7.28574C203.87 6.60112 204.19 5.96652 204.67 5.46221C205.151 4.9579 205.772 4.60652 206.453 4.45253C207.135 4.29853 207.848 4.34883 208.501 4.59706C209.154 4.8453 209.718 5.28031 210.122 5.84709C210.526 6.41387 210.752 7.08696 210.771 7.78122C210.773 7.81249 210.773 7.84384 210.771 7.8751C210.793 8.31403 210.728 8.75294 210.579 9.16677C210.43 9.5806 210.2 9.96125 209.903 10.287C209.606 10.6127 209.248 10.8771 208.848 11.0651C208.448 11.2531 208.014 11.361 207.573 11.3826C207.497 11.3864 207.418 11.3902 207.334 11.3864Z" fill="#1E1F1C"/>
</svg>
